# xmcd
#
# Track frame offsets: 
#        150
#        21843
#        38724
#        60005
#        79711
#        98024
#        111282
#        133251
#        152808
#        179177
#
# Disc length: 2665 seconds
#
# Revision: 0
# Processed by: cddbd v1.5.2PL0 Copyright (c) Steve Scherf et al.
# Submitted via: ExactAudioCopy v1.0b1
#
DISCID=7c0a670a
DTITLE=Jeff Strahan - A Little North Of The Border
DYEAR=2002
DGENRE=Texas Blues
TTITLE0=Del Rio
TTITLE1=Psychotic Blues
TTITLE2=Hard to be a Cowboy
TTITLE3=Mr. Big Easy
TTITLE4=Don't Tell Me
TTITLE5=Big Fat Lawyers
TTITLE6=Sunshine
TTITLE7=Viva Mexico
TTITLE8=Lucille
TTITLE9=Montana
EXTD=
EXTT0=
EXTT1=
EXTT2=
EXTT3=
EXTT4=
EXTT5=
EXTT6=
EXTT7=
EXTT8=
EXTT9=
PLAYORDER=
